name rise45.9887peak57.8056fall74.9286.mot
datacolumns 19
datarows 24
range 2.24666300000000 2.28499300000000
endheader
time	ground_force1_vx	ground_force1_vy	ground_force1_vz	ground_force1_px	ground_force1_py	ground_force1_pz	ground_force2_vx	ground_force2_vy	ground_force2_vz	ground_force2_px	ground_force2_py	ground_force2_pz	ground_torque1_x	ground_torque1_y	ground_torque1_z	ground_torque2_x	ground_torque2_y	ground_torque2_z	
2.24666300000000	50.55621900000000	783.51120500000002	50.27474500000000	0.33498500000000	0.00000000000000	0.10451700000000	0.00000000000000	0.00000000000000	0.00000000000000	0.00000000000000	0.00000000000000	0.00000000000000	0.00000000000000	22.53388000000000	0.00000000000000	0.00000000000000	0.00000000000000	0.00000000000000	
2.24832600000000	50.02330000000000	786.16284399999995	50.51459800000000	0.33437800000000	0.00000000000000	0.10454600000000	0.00000000000000	0.00000000000000	0.00000000000000	0.00000000000000	0.00000000000000	0.00000000000000	0.00000000000000	22.70874600000000	0.00000000000000	0.00000000000000	0.00000000000000	0.00000000000000	
2.24999300000000	49.49293000000000	788.62739099999999	50.74294400000000	0.33378200000000	0.00000000000000	0.10457500000000	0.00000000000000	0.00000000000000	0.00000000000000	0.00000000000000	0.00000000000000	0.00000000000000	0.00000000000000	22.87641600000000	0.00000000000000	0.00000000000000	0.00000000000000	0.00000000000000	
2.25165800000000	48.96573500000000	790.90422100000001	50.95962100000000	0.33319600000000	0.00000000000000	0.10460200000000	0.00000000000000	0.00000000000000	0.00000000000000	0.00000000000000	0.00000000000000	0.00000000000000	0.00000000000000	23.03666800000000	0.00000000000000	0.00000000000000	0.00000000000000	0.00000000000000	
2.25332300000000	48.44227900000000	792.99300000000005	51.16445000000000	0.33261800000000	0.00000000000000	0.10462900000000	0.00000000000000	0.00000000000000	0.00000000000000	0.00000000000000	0.00000000000000	0.00000000000000	0.00000000000000	23.18927400000000	0.00000000000000	0.00000000000000	0.00000000000000	0.00000000000000	
2.25499100000000	47.92306000000000	794.89369399999998	51.35723800000000	0.33204600000000	0.00000000000000	0.10465600000000	0.00000000000000	0.00000000000000	0.00000000000000	0.00000000000000	0.00000000000000	0.00000000000000	0.00000000000000	23.33400100000000	0.00000000000000	0.00000000000000	0.00000000000000	0.00000000000000	
2.25665700000000	47.40851400000000	796.60657600000002	51.53778100000000	0.33147900000000	0.00000000000000	0.10468200000000	0.00000000000000	0.00000000000000	0.00000000000000	0.00000000000000	0.00000000000000	0.00000000000000	0.00000000000000	23.47061600000000	0.00000000000000	0.00000000000000	0.00000000000000	0.00000000000000	
2.25833000000000	46.89901600000000	798.13223000000005	51.70586700000000	0.33091600000000	0.00000000000000	0.10470800000000	0.00000000000000	0.00000000000000	0.00000000000000	0.00000000000000	0.00000000000000	0.00000000000000	0.00000000000000	23.59888300000000	0.00000000000000	0.00000000000000	0.00000000000000	0.00000000000000	
2.25999700000000	46.39488500000000	799.47155499999997	51.86128100000000	0.33035300000000	0.00000000000000	0.10473300000000	0.00000000000000	0.00000000000000	0.00000000000000	0.00000000000000	0.00000000000000	0.00000000000000	0.00000000000000	23.71857100000000	0.00000000000000	0.00000000000000	0.00000000000000	0.00000000000000	
2.26166000000000	45.89638000000000	800.62576400000000	52.00380300000000	0.32979100000000	0.00000000000000	0.10475800000000	0.00000000000000	0.00000000000000	0.00000000000000	0.00000000000000	0.00000000000000	0.00000000000000	0.00000000000000	23.82945500000000	0.00000000000000	0.00000000000000	0.00000000000000	0.00000000000000	
2.26332300000000	45.40371000000000	801.59639100000004	52.13322000000000	0.32922600000000	0.00000000000000	0.10478200000000	0.00000000000000	0.00000000000000	0.00000000000000	0.00000000000000	0.00000000000000	0.00000000000000	0.00000000000000	23.93131500000000	0.00000000000000	0.00000000000000	0.00000000000000	0.00000000000000	
2.26499800000000	44.91703200000000	802.38528599999995	52.24932100000000	0.32865700000000	0.00000000000000	0.10480700000000	0.00000000000000	0.00000000000000	0.00000000000000	0.00000000000000	0.00000000000000	0.00000000000000	0.00000000000000	24.02394000000000	0.00000000000000	0.00000000000000	0.00000000000000	0.00000000000000	
2.26666100000000	44.43645500000000	802.99461699999995	52.35190400000000	0.32808300000000	0.00000000000000	0.10483100000000	0.00000000000000	0.00000000000000	0.00000000000000	0.00000000000000	0.00000000000000	0.00000000000000	0.00000000000000	24.10713400000000	0.00000000000000	0.00000000000000	0.00000000000000	0.00000000000000	
2.26832300000000	43.96204400000000	803.42686300000003	52.44078100000000	0.32750100000000	0.00000000000000	0.10485500000000	0.00000000000000	0.00000000000000	0.00000000000000	0.00000000000000	0.00000000000000	0.00000000000000	0.00000000000000	24.18071100000000	0.00000000000000	0.00000000000000	0.00000000000000	0.00000000000000	
2.26999200000000	43.49381900000000	803.68481699999995	52.51577800000000	0.32691000000000	0.00000000000000	0.10487800000000	0.00000000000000	0.00000000000000	0.00000000000000	0.00000000000000	0.00000000000000	0.00000000000000	0.00000000000000	24.24450300000000	0.00000000000000	0.00000000000000	0.00000000000000	0.00000000000000	
2.27165600000000	43.03176700000000	803.77157499999998	52.57674000000000	0.32630900000000	0.00000000000000	0.10490200000000	0.00000000000000	0.00000000000000	0.00000000000000	0.00000000000000	0.00000000000000	0.00000000000000	0.00000000000000	24.29836000000000	0.00000000000000	0.00000000000000	0.00000000000000	0.00000000000000	
2.27332400000000	42.57583300000000	803.69053299999996	52.62353400000000	0.32569500000000	0.00000000000000	0.10492500000000	0.00000000000000	0.00000000000000	0.00000000000000	0.00000000000000	0.00000000000000	0.00000000000000	0.00000000000000	24.34215200000000	0.00000000000000	0.00000000000000	0.00000000000000	0.00000000000000	
2.27498900000000	42.12593600000000	803.44537900000000	52.65604900000000	0.32506600000000	0.00000000000000	0.10494800000000	0.00000000000000	0.00000000000000	0.00000000000000	0.00000000000000	0.00000000000000	0.00000000000000	0.00000000000000	24.37577100000000	0.00000000000000	0.00000000000000	0.00000000000000	0.00000000000000	
2.27666100000000	41.68196300000000	803.04008499999998	52.67420400000000	0.32442200000000	0.00000000000000	0.10497200000000	0.00000000000000	0.00000000000000	0.00000000000000	0.00000000000000	0.00000000000000	0.00000000000000	0.00000000000000	24.39913300000000	0.00000000000000	0.00000000000000	0.00000000000000	0.00000000000000	
2.27832500000000	41.24377600000000	802.47889599999996	52.67794700000000	0.32376100000000	0.00000000000000	0.10499500000000	0.00000000000000	0.00000000000000	0.00000000000000	0.00000000000000	0.00000000000000	0.00000000000000	0.00000000000000	24.41217800000000	0.00000000000000	0.00000000000000	0.00000000000000	0.00000000000000	
2.27999500000000	40.81121500000000	801.76632300000006	52.66725500000000	0.32308000000000	0.00000000000000	0.10501800000000	0.00000000000000	0.00000000000000	0.00000000000000	0.00000000000000	0.00000000000000	0.00000000000000	0.00000000000000	24.41487400000000	0.00000000000000	0.00000000000000	0.00000000000000	0.00000000000000	
2.28166100000000	40.38410200000000	800.90712599999995	52.64214300000000	0.32238000000000	0.00000000000000	0.10504200000000	0.00000000000000	0.00000000000000	0.00000000000000	0.00000000000000	0.00000000000000	0.00000000000000	0.00000000000000	24.40721700000000	0.00000000000000	0.00000000000000	0.00000000000000	0.00000000000000	
2.28332900000000	39.96224400000000	799.90630999999996	52.60265800000000	0.32165800000000	0.00000000000000	0.10506500000000	0.00000000000000	0.00000000000000	0.00000000000000	0.00000000000000	0.00000000000000	0.00000000000000	0.00000000000000	24.38923200000000	0.00000000000000	0.00000000000000	0.00000000000000	0.00000000000000	
2.28499300000000	39.54543400000000	798.76910099999998	52.54888700000000	0.32091300000000	0.00000000000000	0.10508800000000	0.00000000000000	0.00000000000000	0.00000000000000	0.00000000000000	0.00000000000000	0.00000000000000	0.00000000000000	24.36097300000000	0.00000000000000	0.00000000000000	0.00000000000000	0.00000000000000	
